<svg height="512pt" viewBox="0 0 512 512" width="512pt" xmlns="http://www.w3.org/2000/svg"><path d="m215.679688 246.519531h164.898437v159.6875h-164.898437zm0 0" fill="#adf2f5"/><path d="m130.398438 246.519531h125.203124v159.6875h-125.203124zm0 0" fill="#fff"/><path d="m50.554688 346.324219 119.769531 165.675781h85.277343v-165.675781zm0 0" fill="#fe5e49"/><path d="m255.601562 346.324219v165.675781h85.054688l119.765625-165.675781zm0 0" fill="#ff3a33"/><path d="m0 512h170.324219v-75.054688l-85.164063-109.785156-85.160156 109.785156zm0 0" fill="#83b3f1"/><path d="m0 286.441406v150.503906h170.324219v-250.308593zm0 0" fill="#adf2f5"/><path d="m340.679688 512h170.320312v-75.054688l-85.160156-109.785156-85.160156 109.785156zm0 0" fill="#928bff"/><path d="m511 286.441406-170.34375-99.804687v250.308593h170.34375zm0 0" fill="#74dce2"/><path d="m511 286.441406v-226.558594h-255.398438l-119.765624 113.277344 119.765624 113.28125zm0 0" fill="#fe5e49"/><path d="m0 59.882812h255.601562v226.558594h-255.601562zm0 0" fill="#fd7b5b"/><path d="m255.601562 74.855469-29.941406 29.941406 29.941406 29.941406c33.523438.054688 60.78125 27.34375 60.78125 60.878907v44.914062h59.882813v-44.914062c0-66.554688-54.121094-120.707032-120.664063-120.761719zm0 0" fill="#01b1bc"/><path d="m255.5 74.855469c-66.589844 0-120.761719 54.171875-120.761719 120.761719l14.96875 44.914062h29.941407l14.972656-44.914062c0-33.570313 27.308594-60.878907 60.878906-60.878907h.101562v-59.882812c-.035156 0-.066406 0-.101562 0zm0 0" fill="#3ac7cf"/><path d="m255.601562 14.972656-39.921874 37.425782 39.921874 37.425781c58.289063.054687 105.691407 47.492187 105.691407 105.792969l30.941406 44.914062h28.941406l14.972657-44.914062c0-99.734376-80.824219-180.589844-180.546876-180.644532zm0 0" fill="#fc7e49"/><path d="m255.5 14.972656c-99.769531 0-180.644531 80.875-180.644531 180.644532l14.96875 44.914062h29.941406l29.941406-44.914062c0-58.335938 47.457031-105.792969 105.792969-105.792969h.101562v-74.851563c-.035156 0-.066406 0-.101562 0zm0 0" fill="#f99e49"/><path d="m255.601562 0-29.941406 14.972656 29.941406 14.96875c91.308594.054688 165.574219 74.355469 165.574219 165.675782v44.914062h29.941407v-44.914062c0-107.828126-87.695313-195.5625005-195.515626-195.617188zm0 0" fill="#ff3a33"/><path d="m255.5 0c-107.863281 0-195.617188 87.753906-195.617188 195.617188v44.914062h29.941407v-44.914062c0-91.355469 74.320312-165.675782 165.675781-165.675782h.101562v-29.941406c-.035156 0-.066406 0-.101562 0zm0 0" fill="#fd5b37"/><path d="m361.292969 195.617188v44.914062h29.941406v-44.914062c0-74.808594-60.835937-135.679688-135.632813-135.734376l-19.960937 14.972657 19.960937 14.96875c58.289063.054687 105.691407 47.492187 105.691407 105.792969zm0 0" fill="#f7be48"/><path d="m301.410156 195.617188v44.914062h29.941406v-44.914062c0-41.789063-33.972656-75.792969-75.75-75.847657l-19.960937 14.96875 19.960937 14.972657c25.269532.054687 45.808594 20.625 45.808594 45.90625zm0 0" fill="#554fb2"/><path d="m179.648438 195.617188v44.914062h29.941406v-44.914062c0-25.3125 20.597656-45.910157 45.910156-45.910157.035156 0 .066406.003907.101562.003907v-29.941407c-.035156 0-.066406-.003906-.101562-.003906-41.824219 0-75.851562 34.027344-75.851562 75.851563zm0 0" fill="#736dd9"/><path d="m119.765625 195.640625.101563 44.890625h29.941406l-.101563-44.914062c0-58.335938 47.460938-105.792969 105.792969-105.792969h.101562v-29.941407c-.035156 0-.066406 0-.101562 0-74.84375 0-135.734375 60.890626-135.734375 135.757813zm0 0" fill="#f4de48"/></svg>